{
  "accessors": [
    {
      "bufferView": 2,
      "componentType": 5126,
      "count": 2982,
      "max": [
        0.4542680084705353,
        0.15433800220489502,
        0.8978670239448547
      ],
      "min": [
        -0.45671001076698303,
        -0.2184620052576065,
        0.0024220000486820936
      ],
      "type": "VEC3"
    },
    {
      "bufferView": 2,
      "byteOffset": 35784,
      "componentType": 5126,
      "count": 2982,
      "max": [
        0.9976534843444824,
        1.0,
        1.0
      ],
      "min": [
        -0.9978170990943909,
        -1.0,
        -1.0
      ],
      "type": "VEC3"
    },
    {
      "bufferView": 1,
      "componentType": 5126,
      "count": 2982,
      "max": [
        0.996291995048523,
        0.9964029788970947
      ],
      "min": [
        0.005073999986052513,
        0.004858000203967094
      ],
      "type": "VEC2"
    },
    {
      "bufferView": 0,
      "componentType": 5125,
      "count": 14472,
      "type": "SCALAR"
    }
  ],
  "asset": {
    "extras": {
      "author": "SMF Features Developed From Cheryl Hill (https://sketchfab.com/cherylhill28)",
      "license": "CC-BY-4.0 (http://creativecommons.org/licenses/by/4.0/)",
      "source": "https://sketchfab.com/3d-models/nsbu-patrick-b687362a18934a69b96c462164e159d1",
      "title": "NSBU - Patrick"
    },
    "generator": "Sketchfab-16.73.0",
    "version": "2.0"
  },
  "bufferViews": [
    {
      "buffer": 0,
      "byteLength": 57888,
      "name": "floatBufferViews",
      "target": 34963
    },
    {
      "buffer": 0,
      "byteLength": 23856,
      "byteOffset": 57888,
      "byteStride": 8,
      "name": "floatBufferViews",
      "target": 34962
    },
    {
      "buffer": 0,
      "byteLength": 71568,
      "byteOffset": 81744,
      "byteStride": 12,
      "name": "floatBufferViews",
      "target": 34962
    }
  ],
  "buffers": [
    {
      "byteLength": 153312,
      "uri": "scene.bin"
    }
  ],
  "images": [
    {
      "uri": "textures/Patrick_c_baseColor.png"
    }
  ],
  "materials": [
    {
      "doubleSided": true,
      "name": "Patrick_c",
      "pbrMetallicRoughness": {
        "baseColorTexture": {
          "index": 0
        },
        "metallicFactor": 0.0
      }
    }
  ],
  "meshes": [
    {
      "name": "Object_0",
      "primitives": [
        {
          "attributes": {
            "NORMAL": 1,
            "POSITION": 0,
            "TEXCOORD_0": 2
          },
          "indices": 3,
          "material": 0,
          "mode": 4
        }
      ]
    }
  ],
  "nodes": [
    {
      "children": [
        1
      ],
      "matrix": [
        1.0,
        0.0,
        0.0,
        0.0,
        0.0,
        2.220446049250313e-16,
        -1.0,
        0.0,
        0.0,
        1.0,
        2.220446049250313e-16,
        0.0,
        0.0,
        0.0,
        0.0,
        1.0
      ],
      "name": "Sketchfab_model"
    },
    {
      "children": [
        2
      ],
      "name": "Patrick.obj.cleaner.materialmerger.gles"
    },
    {
      "mesh": 0,
      "name": "Object_2"
    }
  ],
  "samplers": [
    {
      "magFilter": 9729,
      "minFilter": 9987,
      "wrapS": 10497,
      "wrapT": 10497
    }
  ],
  "scene": 0,
  "scenes": [
    {
      "name": "Sketchfab_Scene",
      "nodes": [
        0
      ]
    }
  ],
  "textures": [
    {
      "sampler": 0,
      "source": 0
    }
  ]
}
